<svg width="22" height="20" viewBox="0 0 22 20" fill="none" xmlns="http://www.w3.org/2000/svg">
<path d="M10.6334 0.466949C4.84718 0.467359 0.157679 4.71268 0.157227 9.95092C0.157679 15.1896 4.84718 19.4353 10.6334 19.4361C16.4191 19.4353 21.1091 15.1896 21.1095 9.95092C21.1082 4.71268 16.4191 0.467359 10.6334 0.466949ZM10.6777 18.1487C5.8724 18.1405 1.44848 14.3015 1.43943 9.95092C1.44848 5.60115 5.8724 1.64174 10.6777 1.63355C15.4826 1.64174 19.8115 5.64129 19.8206 9.99106C19.812 14.3417 15.4826 18.1409 10.6777 18.1487Z" fill="black"/>
<path d="M4.62583 13.3776L4.75945 12.626L10.5052 5.74445H5.84513L5.99545 4.8258H11.8915L11.7746 5.57742L6.01215 12.4589H10.6722L10.5219 13.3776H4.62583ZM6.39632 23.5193L5.76161 27.3776H4.77615L5.84513 20.9637H6.79718L6.63015 21.9659H6.71367C6.9141 21.6402 7.18552 21.3785 7.52793 21.1809C7.87033 20.9805 8.28372 20.8802 8.7681 20.8802C9.19681 20.8802 9.5587 20.9693 9.85378 21.1475C10.1516 21.3229 10.3618 21.5901 10.4843 21.9492C10.6096 22.3055 10.6277 22.7565 10.5386 23.3021L9.85378 27.3776H8.86832L9.53643 23.3689C9.61994 22.8679 9.55452 22.4753 9.34017 22.1914C9.1286 21.9075 8.79316 21.7655 8.33383 21.7655C8.01648 21.7655 7.72279 21.8337 7.45276 21.9701C7.18552 22.1065 6.95864 22.3055 6.77213 22.5672C6.5884 22.8289 6.46313 23.1462 6.39632 23.5193Z" fill="black"/>
</svg>
